<mxfile host="app.diagrams.net" modified="2022-05-15T12:33:46.539Z" agent="5.0 (Macintosh; Intel Mac OS X 10_15_7) AppleWebKit/605.1.15 (KHTML, like Gecko) Version/15.4 Safari/605.1.15" etag="NMSolUohjuaG8N6ylOUy" version="17.4.6" type="github">
  <diagram id="C5RBs43oDa-KdzZeNtuy" name="Page-1">
    <mxGraphModel dx="518" dy="665" grid="1" gridSize="10" guides="1" tooltips="1" connect="1" arrows="1" fold="1" page="1" pageScale="1" pageWidth="827" pageHeight="1169" math="0" shadow="0">
      <root>
        <mxCell id="WIyWlLk6GJQsqaUBKTNV-0" />
        <mxCell id="WIyWlLk6GJQsqaUBKTNV-1" parent="WIyWlLk6GJQsqaUBKTNV-0" />
        <mxCell id="GR4H1CSr_5RNjwsM2H27-0" value="&lt;div style=&quot;text-align: center ; box-sizing: border-box ; width: 100% ; background-color: rgb(228 , 228 , 228) ; padding: 2px&quot;&gt;&lt;font face=&quot;Times New Roman&quot; style=&quot;font-size: 14px&quot;&gt;&lt;b&gt;Tag&lt;/b&gt;&lt;/font&gt;&lt;/div&gt;&lt;table style=&quot;width: 100% ; font-size: 1em&quot; cellpadding=&quot;2&quot; cellspacing=&quot;0&quot;&gt;&lt;tbody&gt;&lt;tr&gt;&lt;td&gt;PK&lt;/td&gt;&lt;td&gt;tag.name:String&lt;/td&gt;&lt;/tr&gt;&lt;tr&gt;&lt;td&gt;&lt;/td&gt;&lt;td&gt;&lt;br&gt;&lt;/td&gt;&lt;/tr&gt;&lt;/tbody&gt;&lt;/table&gt;" style="verticalAlign=top;align=left;overflow=fill;html=1;" vertex="1" parent="WIyWlLk6GJQsqaUBKTNV-1">
          <mxGeometry x="460" y="270" width="180" height="50" as="geometry" />
        </mxCell>
        <mxCell id="GR4H1CSr_5RNjwsM2H27-1" value="&lt;div style=&quot;text-align: center ; box-sizing: border-box ; width: 100% ; background: #e4e4e4 ; padding: 2px&quot;&gt;&lt;font face=&quot;Times New Roman&quot; style=&quot;font-size: 14px&quot;&gt;&lt;b&gt;Language&lt;/b&gt;&lt;/font&gt;&lt;/div&gt;&lt;table style=&quot;width: 100% ; font-size: 1em&quot; cellpadding=&quot;2&quot; cellspacing=&quot;0&quot;&gt;&lt;tbody&gt;&lt;tr&gt;&lt;td&gt;PK&lt;/td&gt;&lt;td&gt;language.name:String&lt;/td&gt;&lt;/tr&gt;&lt;tr&gt;&lt;td&gt;&lt;br&gt;&lt;/td&gt;&lt;td&gt;&lt;br&gt;&lt;/td&gt;&lt;/tr&gt;&lt;tr&gt;&lt;td&gt;&lt;/td&gt;&lt;td&gt;&lt;br&gt;&lt;/td&gt;&lt;/tr&gt;&lt;/tbody&gt;&lt;/table&gt;" style="verticalAlign=top;align=left;overflow=fill;html=1;" vertex="1" parent="WIyWlLk6GJQsqaUBKTNV-1">
          <mxGeometry x="110" y="430" width="180" height="50" as="geometry" />
        </mxCell>
        <mxCell id="GR4H1CSr_5RNjwsM2H27-4" value="&lt;div style=&quot;text-align: center ; box-sizing: border-box ; width: 100% ; background: #e4e4e4 ; padding: 2px&quot;&gt;&lt;font face=&quot;Times New Roman&quot; style=&quot;font-size: 14px&quot;&gt;&lt;b&gt;Active&lt;/b&gt;&lt;/font&gt;&lt;/div&gt;&lt;table style=&quot;width: 100% ; font-size: 1em&quot; cellpadding=&quot;2&quot; cellspacing=&quot;0&quot;&gt;&lt;tbody&gt;&lt;tr&gt;&lt;td&gt;PK&lt;/td&gt;&lt;td&gt;active.name: String&lt;/td&gt;&lt;/tr&gt;&lt;tr&gt;&lt;td&gt;&lt;br&gt;&lt;/td&gt;&lt;td&gt;&lt;br&gt;&lt;/td&gt;&lt;/tr&gt;&lt;tr&gt;&lt;td&gt;&lt;/td&gt;&lt;td&gt;&lt;br&gt;&lt;/td&gt;&lt;/tr&gt;&lt;/tbody&gt;&lt;/table&gt;" style="verticalAlign=top;align=left;overflow=fill;html=1;fillColor=none;" vertex="1" parent="WIyWlLk6GJQsqaUBKTNV-1">
          <mxGeometry x="40" y="280" width="180" height="40" as="geometry" />
        </mxCell>
        <mxCell id="GR4H1CSr_5RNjwsM2H27-18" value="&lt;div style=&quot;text-align: center ; box-sizing: border-box ; width: 100% ; background: #e4e4e4 ; padding: 2px&quot;&gt;&lt;font style=&quot;font-size: 14px&quot;&gt;&lt;b&gt;Word&lt;/b&gt;&lt;/font&gt;&lt;/div&gt;&lt;table style=&quot;width: 100% ; font-size: 1em&quot; cellpadding=&quot;2&quot; cellspacing=&quot;0&quot;&gt;&lt;tbody&gt;&lt;tr&gt;&lt;td&gt;&lt;font style=&quot;font-size: 14px&quot;&gt;PK&lt;/font&gt;&lt;/td&gt;&lt;td&gt;&lt;font style=&quot;font-size: 14px&quot;&gt;entry: String&lt;/font&gt;&lt;/td&gt;&lt;/tr&gt;&lt;tr&gt;&lt;td&gt;&lt;font style=&quot;font-size: 14px&quot;&gt;FK_1&lt;/font&gt;&lt;/td&gt;&lt;td&gt;&lt;font style=&quot;font-size: 14px&quot;&gt;activity: String&lt;br&gt;&lt;/font&gt;&lt;/td&gt;&lt;/tr&gt;&lt;tr&gt;&lt;td&gt;&lt;/td&gt;&lt;td&gt;&lt;table cellpadding=&quot;2&quot; cellspacing=&quot;0&quot; style=&quot;font-size: 1em ; width: 180px&quot;&gt;&lt;tbody&gt;&lt;tr&gt;&lt;td&gt;&lt;font style=&quot;font-size: 14px&quot;&gt;index: String&lt;/font&gt;&lt;/td&gt;&lt;/tr&gt;&lt;tr&gt;&lt;td&gt;&lt;font&gt;&lt;font style=&quot;font-size: 14px&quot;&gt;tag.name: String&lt;br&gt;&lt;/font&gt;&lt;font style=&quot;font-size: 14px&quot;&gt;language.name: String&lt;br&gt;&lt;/font&gt;&lt;font style=&quot;font-size: 14px&quot;&gt;update: Datetime&lt;br&gt;&lt;/font&gt;&lt;code&gt;&lt;code style=&quot;font-size: 14px&quot;&gt;&lt;font face=&quot;Times New Roman&quot;&gt;default_ipa&lt;/font&gt;&lt;/code&gt;&lt;font face=&quot;Times New Roman&quot;&gt;:&lt;/font&gt; &lt;font face=&quot;Times New Roman&quot; style=&quot;font-size: 14px&quot;&gt;boolean&lt;/font&gt;&lt;br&gt;&lt;font face=&quot;Times New Roman&quot; style=&quot;font-size: 14px&quot;&gt;status&lt;/font&gt;&lt;font face=&quot;Times New Roman&quot;&gt;:&lt;/font&gt; &lt;font face=&quot;Times New Roman&quot; style=&quot;font-size: 14px&quot;&gt;String&lt;/font&gt;&lt;br&gt;&lt;/code&gt;&lt;/font&gt;&lt;br&gt;&lt;/td&gt;&lt;td&gt;&lt;/td&gt;&lt;/tr&gt;&lt;/tbody&gt;&lt;/table&gt;&lt;/td&gt;&lt;/tr&gt;&lt;/tbody&gt;&lt;/table&gt;" style="verticalAlign=top;align=left;overflow=fill;html=1;fontFamily=Times New Roman;fontSize=14;fillColor=#FFFFFF;" vertex="1" parent="WIyWlLk6GJQsqaUBKTNV-1">
          <mxGeometry x="40" y="40" width="240" height="200" as="geometry" />
        </mxCell>
        <mxCell id="GR4H1CSr_5RNjwsM2H27-20" value="&lt;div style=&quot;text-align: center ; box-sizing: border-box ; width: 100% ; background: #e4e4e4 ; padding: 2px&quot;&gt;&lt;font style=&quot;font-size: 14px&quot;&gt;&lt;b&gt;IPA&lt;/b&gt;&lt;/font&gt;&lt;/div&gt;&lt;table style=&quot;width: 100% ; font-size: 1em&quot; cellpadding=&quot;2&quot; cellspacing=&quot;0&quot;&gt;&lt;tbody&gt;&lt;tr&gt;&lt;td&gt;FK_2&lt;br&gt;&lt;/td&gt;&lt;td&gt;&lt;font face=&quot;Times New Roman&quot;&gt;&lt;code&gt;&lt;font face=&quot;Times New Roman&quot;&gt;def_word&lt;/font&gt;: &lt;font face=&quot;Times New Roman&quot;&gt;String&lt;/font&gt;&lt;/code&gt;&lt;br&gt;&lt;/font&gt;&lt;/td&gt;&lt;/tr&gt;&lt;tr&gt;&lt;td&gt;FK_3&lt;br&gt;&lt;/td&gt;&lt;td&gt;&lt;code&gt;&lt;font face=&quot;Times New Roman&quot;&gt;activity&lt;/font&gt;:&lt;font face=&quot;Times New Roman&quot;&gt;String&lt;/font&gt;&lt;/code&gt;&lt;br&gt;&lt;/td&gt;&lt;/tr&gt;&lt;tr&gt;&lt;td&gt;&lt;/td&gt;&lt;td&gt;syllable:Int&lt;br&gt;stress: String&lt;br&gt;Sampa:string&lt;br&gt;audio: String&lt;br&gt;&lt;br&gt;&lt;/td&gt;&lt;/tr&gt;&lt;/tbody&gt;&lt;/table&gt;" style="verticalAlign=top;align=left;overflow=fill;html=1;fontFamily=Times New Roman;fontSize=14;fillColor=#FFFFFF;" vertex="1" parent="WIyWlLk6GJQsqaUBKTNV-1">
          <mxGeometry x="460" y="40" width="300" height="140" as="geometry" />
        </mxCell>
        <mxCell id="GR4H1CSr_5RNjwsM2H27-21" value="&lt;div style=&quot;text-align: center ; box-sizing: border-box ; width: 100% ; background: #e4e4e4 ; padding: 2px&quot;&gt;&lt;font face=&quot;Times New Roman&quot; style=&quot;font-size: 14px&quot;&gt;&lt;b&gt;Meta&lt;/b&gt;&lt;/font&gt;&lt;/div&gt;&lt;table style=&quot;width: 100% ; font-size: 1em&quot; cellpadding=&quot;2&quot; cellspacing=&quot;0&quot;&gt;&lt;tbody&gt;&lt;tr&gt;&lt;td&gt;&lt;br&gt;&lt;/td&gt;&lt;td&gt;ordering:String&lt;/td&gt;&lt;/tr&gt;&lt;tr&gt;&lt;td&gt;&lt;br&gt;&lt;/td&gt;&lt;td&gt;&lt;br&gt;&lt;/td&gt;&lt;/tr&gt;&lt;tr&gt;&lt;td&gt;&lt;/td&gt;&lt;td&gt;&lt;br&gt;&lt;/td&gt;&lt;/tr&gt;&lt;/tbody&gt;&lt;/table&gt;" style="verticalAlign=top;align=left;overflow=fill;html=1;" vertex="1" parent="WIyWlLk6GJQsqaUBKTNV-1">
          <mxGeometry x="414" y="480" width="180" height="50" as="geometry" />
        </mxCell>
        <mxCell id="GR4H1CSr_5RNjwsM2H27-23" value="" style="endArrow=none;html=1;rounded=0;fontFamily=Times New Roman;fontSize=14;entryX=0;entryY=0.5;entryDx=0;entryDy=0;exitX=1.017;exitY=0.41;exitDx=0;exitDy=0;exitPerimeter=0;edgeStyle=elbowEdgeStyle;" edge="1" parent="WIyWlLk6GJQsqaUBKTNV-1" source="GR4H1CSr_5RNjwsM2H27-18" target="GR4H1CSr_5RNjwsM2H27-0">
          <mxGeometry width="50" height="50" relative="1" as="geometry">
            <mxPoint x="300" y="190" as="sourcePoint" />
            <mxPoint x="350" y="140" as="targetPoint" />
            <Array as="points">
              <mxPoint x="330" y="90" />
              <mxPoint x="300" y="133" />
            </Array>
          </mxGeometry>
        </mxCell>
        <mxCell id="GR4H1CSr_5RNjwsM2H27-24" value="0..*" style="text;html=1;strokeColor=none;fillColor=none;align=center;verticalAlign=middle;whiteSpace=wrap;rounded=0;fontFamily=Times New Roman;fontSize=14;" vertex="1" parent="WIyWlLk6GJQsqaUBKTNV-1">
          <mxGeometry x="280" y="95" width="60" height="30" as="geometry" />
        </mxCell>
        <mxCell id="GR4H1CSr_5RNjwsM2H27-25" value="0..*" style="text;html=1;strokeColor=none;fillColor=none;align=center;verticalAlign=middle;whiteSpace=wrap;rounded=0;fontFamily=Times New Roman;fontSize=14;" vertex="1" parent="WIyWlLk6GJQsqaUBKTNV-1">
          <mxGeometry x="390" y="260" width="60" height="30" as="geometry" />
        </mxCell>
        <mxCell id="GR4H1CSr_5RNjwsM2H27-28" value="" style="endArrow=none;html=1;rounded=0;fontFamily=Times New Roman;fontSize=14;exitX=0.906;exitY=0.02;exitDx=0;exitDy=0;entryX=0.971;entryY=1.01;entryDx=0;entryDy=0;entryPerimeter=0;exitPerimeter=0;" edge="1" parent="WIyWlLk6GJQsqaUBKTNV-1" source="GR4H1CSr_5RNjwsM2H27-1" target="GR4H1CSr_5RNjwsM2H27-18">
          <mxGeometry width="50" height="50" relative="1" as="geometry">
            <mxPoint x="170" y="320" as="sourcePoint" />
            <mxPoint x="220" y="270" as="targetPoint" />
          </mxGeometry>
        </mxCell>
        <mxCell id="GR4H1CSr_5RNjwsM2H27-29" value="0..*" style="text;html=1;strokeColor=none;fillColor=none;align=center;verticalAlign=middle;whiteSpace=wrap;rounded=0;fontFamily=Times New Roman;fontSize=14;" vertex="1" parent="WIyWlLk6GJQsqaUBKTNV-1">
          <mxGeometry x="220" y="240" width="60" height="30" as="geometry" />
        </mxCell>
        <mxCell id="GR4H1CSr_5RNjwsM2H27-30" value="0..*" style="text;html=1;strokeColor=none;fillColor=none;align=center;verticalAlign=middle;whiteSpace=wrap;rounded=0;fontFamily=Times New Roman;fontSize=14;" vertex="1" parent="WIyWlLk6GJQsqaUBKTNV-1">
          <mxGeometry x="210" y="400" width="60" height="30" as="geometry" />
        </mxCell>
        <mxCell id="GR4H1CSr_5RNjwsM2H27-31" value="" style="endArrow=none;html=1;rounded=0;fontFamily=Times New Roman;fontSize=14;entryX=0;entryY=0.25;entryDx=0;entryDy=0;exitX=0.996;exitY=0.185;exitDx=0;exitDy=0;exitPerimeter=0;" edge="1" parent="WIyWlLk6GJQsqaUBKTNV-1" source="GR4H1CSr_5RNjwsM2H27-18" target="GR4H1CSr_5RNjwsM2H27-20">
          <mxGeometry width="50" height="50" relative="1" as="geometry">
            <mxPoint x="290" y="110" as="sourcePoint" />
            <mxPoint x="340" y="60" as="targetPoint" />
          </mxGeometry>
        </mxCell>
        <mxCell id="GR4H1CSr_5RNjwsM2H27-32" value="0..*" style="text;html=1;strokeColor=none;fillColor=none;align=center;verticalAlign=middle;whiteSpace=wrap;rounded=0;fontFamily=Times New Roman;fontSize=14;" vertex="1" parent="WIyWlLk6GJQsqaUBKTNV-1">
          <mxGeometry x="280" y="50" width="60" height="30" as="geometry" />
        </mxCell>
        <mxCell id="GR4H1CSr_5RNjwsM2H27-33" value="0..*" style="text;html=1;strokeColor=none;fillColor=none;align=center;verticalAlign=middle;whiteSpace=wrap;rounded=0;fontFamily=Times New Roman;fontSize=14;" vertex="1" parent="WIyWlLk6GJQsqaUBKTNV-1">
          <mxGeometry x="390" y="40" width="60" height="30" as="geometry" />
        </mxCell>
        <mxCell id="GR4H1CSr_5RNjwsM2H27-35" value="" style="endArrow=none;html=1;rounded=0;fontFamily=Times New Roman;fontSize=14;entryX=0;entryY=0.25;entryDx=0;entryDy=0;exitX=0;exitY=0.75;exitDx=0;exitDy=0;edgeStyle=elbowEdgeStyle;" edge="1" parent="WIyWlLk6GJQsqaUBKTNV-1" source="GR4H1CSr_5RNjwsM2H27-4" target="GR4H1CSr_5RNjwsM2H27-18">
          <mxGeometry width="50" height="50" relative="1" as="geometry">
            <mxPoint x="50" y="220" as="sourcePoint" />
            <mxPoint x="100" y="170" as="targetPoint" />
            <Array as="points">
              <mxPoint x="10" y="200" />
            </Array>
          </mxGeometry>
        </mxCell>
        <mxCell id="GR4H1CSr_5RNjwsM2H27-36" value="1" style="text;html=1;strokeColor=none;fillColor=none;align=center;verticalAlign=middle;whiteSpace=wrap;rounded=0;fontFamily=Times New Roman;fontSize=14;" vertex="1" parent="WIyWlLk6GJQsqaUBKTNV-1">
          <mxGeometry y="60" width="40" height="20" as="geometry" />
        </mxCell>
        <mxCell id="GR4H1CSr_5RNjwsM2H27-37" value="1" style="text;html=1;strokeColor=none;fillColor=none;align=center;verticalAlign=middle;whiteSpace=wrap;rounded=0;fontFamily=Times New Roman;fontSize=14;" vertex="1" parent="WIyWlLk6GJQsqaUBKTNV-1">
          <mxGeometry x="10" y="320" width="40" height="20" as="geometry" />
        </mxCell>
        <mxCell id="GR4H1CSr_5RNjwsM2H27-38" value="" style="endArrow=none;html=1;rounded=0;fontFamily=Times New Roman;fontSize=14;exitX=1;exitY=0.5;exitDx=0;exitDy=0;entryX=1;entryY=0.25;entryDx=0;entryDy=0;edgeStyle=elbowEdgeStyle;" edge="1" parent="WIyWlLk6GJQsqaUBKTNV-1" source="GR4H1CSr_5RNjwsM2H27-1" target="GR4H1CSr_5RNjwsM2H27-20">
          <mxGeometry width="50" height="50" relative="1" as="geometry">
            <mxPoint x="290" y="500" as="sourcePoint" />
            <mxPoint x="721" y="440" as="targetPoint" />
            <Array as="points">
              <mxPoint x="800" y="260" />
            </Array>
          </mxGeometry>
        </mxCell>
        <mxCell id="GR4H1CSr_5RNjwsM2H27-39" value="1" style="text;html=1;strokeColor=none;fillColor=none;align=center;verticalAlign=middle;whiteSpace=wrap;rounded=0;fontFamily=Times New Roman;fontSize=14;" vertex="1" parent="WIyWlLk6GJQsqaUBKTNV-1">
          <mxGeometry x="300" y="430" width="40" height="20" as="geometry" />
        </mxCell>
        <mxCell id="GR4H1CSr_5RNjwsM2H27-40" value="1" style="text;html=1;strokeColor=none;fillColor=none;align=center;verticalAlign=middle;whiteSpace=wrap;rounded=0;fontFamily=Times New Roman;fontSize=14;" vertex="1" parent="WIyWlLk6GJQsqaUBKTNV-1">
          <mxGeometry x="760" y="50" width="40" height="20" as="geometry" />
        </mxCell>
      </root>
    </mxGraphModel>
  </diagram>
</mxfile>
